<mxfile host="app.diagrams.net" modified="2020-10-05T11:57:09.733Z" agent="5.0 (Windows)" etag="Ux9LEsQgHI239xRBAg2L" version="13.7.7" type="github">
  <diagram id="G9GTivXHeRjieDgn6ojS" name="Page-1">
    <mxGraphModel dx="2071" dy="655" grid="1" gridSize="10" guides="1" tooltips="1" connect="1" arrows="1" fold="1" page="1" pageScale="1" pageWidth="850" pageHeight="1100" math="0" shadow="0">
      <root>
        <mxCell id="0" />
        <mxCell id="1" parent="0" />
        <mxCell id="N-l8g5hQNdS7UJRthiQP-1" value="منصة سهله" style="rounded=0;whiteSpace=wrap;html=1;" vertex="1" parent="1">
          <mxGeometry x="305" y="40" width="120" height="60" as="geometry" />
        </mxCell>
        <mxCell id="N-l8g5hQNdS7UJRthiQP-2" value="المستثمر" style="rounded=0;whiteSpace=wrap;html=1;" vertex="1" parent="1">
          <mxGeometry x="140" y="130" width="120" height="60" as="geometry" />
        </mxCell>
        <mxCell id="N-l8g5hQNdS7UJRthiQP-3" value="الشركات" style="rounded=0;whiteSpace=wrap;html=1;" vertex="1" parent="1">
          <mxGeometry x="470" y="140" width="120" height="60" as="geometry" />
        </mxCell>
        <mxCell id="N-l8g5hQNdS7UJRthiQP-4" value="ذوي الدخل المحدود 1000 - 10000" style="rounded=0;whiteSpace=wrap;html=1;" vertex="1" parent="1">
          <mxGeometry x="230" y="230" width="120" height="60" as="geometry" />
        </mxCell>
        <mxCell id="N-l8g5hQNdS7UJRthiQP-5" value="ذوي الدخل المرتفع No Limit" style="rounded=0;whiteSpace=wrap;html=1;" vertex="1" parent="1">
          <mxGeometry x="50" y="230" width="120" height="60" as="geometry" />
        </mxCell>
        <mxCell id="N-l8g5hQNdS7UJRthiQP-7" value="طلب تمويل " style="rounded=0;whiteSpace=wrap;html=1;" vertex="1" parent="1">
          <mxGeometry x="600" y="230" width="120" height="60" as="geometry" />
        </mxCell>
        <mxCell id="N-l8g5hQNdS7UJRthiQP-8" value="طلب استثمار" style="rounded=0;whiteSpace=wrap;html=1;" vertex="1" parent="1">
          <mxGeometry x="390" y="230" width="120" height="60" as="geometry" />
        </mxCell>
        <mxCell id="N-l8g5hQNdS7UJRthiQP-9" value="2 Admins from Sahlah" style="rounded=0;whiteSpace=wrap;html=1;" vertex="1" parent="1">
          <mxGeometry x="320" y="340" width="120" height="60" as="geometry" />
        </mxCell>
        <mxCell id="N-l8g5hQNdS7UJRthiQP-10" value="" style="endArrow=classic;html=1;exitX=0.358;exitY=1;exitDx=0;exitDy=0;exitPerimeter=0;entryX=1.017;entryY=0.133;entryDx=0;entryDy=0;entryPerimeter=0;" edge="1" parent="1" source="N-l8g5hQNdS7UJRthiQP-1" target="N-l8g5hQNdS7UJRthiQP-2">
          <mxGeometry width="50" height="50" relative="1" as="geometry">
            <mxPoint x="280" y="120" as="sourcePoint" />
            <mxPoint x="280" y="140" as="targetPoint" />
          </mxGeometry>
        </mxCell>
        <mxCell id="N-l8g5hQNdS7UJRthiQP-11" value="" style="endArrow=classic;html=1;entryX=0.75;entryY=0;entryDx=0;entryDy=0;" edge="1" parent="1" source="N-l8g5hQNdS7UJRthiQP-2" target="N-l8g5hQNdS7UJRthiQP-5">
          <mxGeometry width="50" height="50" relative="1" as="geometry">
            <mxPoint x="140" y="230" as="sourcePoint" />
            <mxPoint x="150" y="220" as="targetPoint" />
            <Array as="points" />
          </mxGeometry>
        </mxCell>
        <mxCell id="N-l8g5hQNdS7UJRthiQP-12" value="" style="endArrow=classic;html=1;exitX=0.642;exitY=1;exitDx=0;exitDy=0;exitPerimeter=0;entryX=0.083;entryY=0;entryDx=0;entryDy=0;entryPerimeter=0;" edge="1" parent="1" source="N-l8g5hQNdS7UJRthiQP-2" target="N-l8g5hQNdS7UJRthiQP-4">
          <mxGeometry width="50" height="50" relative="1" as="geometry">
            <mxPoint x="220" y="220" as="sourcePoint" />
            <mxPoint x="280" y="220" as="targetPoint" />
          </mxGeometry>
        </mxCell>
        <mxCell id="N-l8g5hQNdS7UJRthiQP-13" value="" style="endArrow=classic;html=1;exitX=0.567;exitY=1;exitDx=0;exitDy=0;exitPerimeter=0;" edge="1" parent="1" source="N-l8g5hQNdS7UJRthiQP-1">
          <mxGeometry width="50" height="50" relative="1" as="geometry">
            <mxPoint x="390" y="150" as="sourcePoint" />
            <mxPoint x="460" y="150" as="targetPoint" />
          </mxGeometry>
        </mxCell>
        <mxCell id="N-l8g5hQNdS7UJRthiQP-14" value="" style="endArrow=classic;html=1;entryX=0.875;entryY=0.033;entryDx=0;entryDy=0;entryPerimeter=0;exitX=0.417;exitY=1.033;exitDx=0;exitDy=0;exitPerimeter=0;" edge="1" parent="1" source="N-l8g5hQNdS7UJRthiQP-3" target="N-l8g5hQNdS7UJRthiQP-8">
          <mxGeometry width="50" height="50" relative="1" as="geometry">
            <mxPoint x="530" y="220" as="sourcePoint" />
            <mxPoint x="490" y="200" as="targetPoint" />
          </mxGeometry>
        </mxCell>
        <mxCell id="N-l8g5hQNdS7UJRthiQP-15" value="" style="endArrow=classic;html=1;entryX=0;entryY=0.25;entryDx=0;entryDy=0;" edge="1" parent="1" target="N-l8g5hQNdS7UJRthiQP-7">
          <mxGeometry width="50" height="50" relative="1" as="geometry">
            <mxPoint x="530" y="200" as="sourcePoint" />
            <mxPoint x="590" y="210" as="targetPoint" />
          </mxGeometry>
        </mxCell>
        <mxCell id="N-l8g5hQNdS7UJRthiQP-16" value="" style="endArrow=classic;html=1;entryX=0;entryY=0.25;entryDx=0;entryDy=0;" edge="1" parent="1" target="N-l8g5hQNdS7UJRthiQP-9">
          <mxGeometry width="50" height="50" relative="1" as="geometry">
            <mxPoint x="135" y="290" as="sourcePoint" />
            <mxPoint x="305" y="350" as="targetPoint" />
          </mxGeometry>
        </mxCell>
        <mxCell id="N-l8g5hQNdS7UJRthiQP-17" value="" style="endArrow=classic;html=1;entryX=0.133;entryY=-0.05;entryDx=0;entryDy=0;entryPerimeter=0;" edge="1" parent="1" source="N-l8g5hQNdS7UJRthiQP-4" target="N-l8g5hQNdS7UJRthiQP-9">
          <mxGeometry width="50" height="50" relative="1" as="geometry">
            <mxPoint x="310" y="320" as="sourcePoint" />
            <mxPoint x="330" y="330" as="targetPoint" />
          </mxGeometry>
        </mxCell>
        <mxCell id="N-l8g5hQNdS7UJRthiQP-18" value="" style="endArrow=classic;html=1;entryX=0.667;entryY=0;entryDx=0;entryDy=0;entryPerimeter=0;" edge="1" parent="1" target="N-l8g5hQNdS7UJRthiQP-9">
          <mxGeometry width="50" height="50" relative="1" as="geometry">
            <mxPoint x="410" y="290" as="sourcePoint" />
            <mxPoint x="400" y="330" as="targetPoint" />
          </mxGeometry>
        </mxCell>
        <mxCell id="N-l8g5hQNdS7UJRthiQP-19" value="" style="endArrow=classic;html=1;entryX=1;entryY=0.25;entryDx=0;entryDy=0;" edge="1" parent="1" target="N-l8g5hQNdS7UJRthiQP-9">
          <mxGeometry width="50" height="50" relative="1" as="geometry">
            <mxPoint x="610" y="290" as="sourcePoint" />
            <mxPoint x="450" y="360" as="targetPoint" />
          </mxGeometry>
        </mxCell>
        <mxCell id="N-l8g5hQNdS7UJRthiQP-20" value="علم" style="rounded=0;whiteSpace=wrap;html=1;" vertex="1" parent="1">
          <mxGeometry x="60" y="360" width="110" height="60" as="geometry" />
        </mxCell>
        <mxCell id="N-l8g5hQNdS7UJRthiQP-21" value="ثقه" style="rounded=0;whiteSpace=wrap;html=1;" vertex="1" parent="1">
          <mxGeometry x="55" y="440" width="120" height="60" as="geometry" />
        </mxCell>
        <mxCell id="N-l8g5hQNdS7UJRthiQP-22" value="بنك الرياض" style="rounded=0;whiteSpace=wrap;html=1;" vertex="1" parent="1">
          <mxGeometry x="90" y="540" width="120" height="60" as="geometry" />
        </mxCell>
        <mxCell id="N-l8g5hQNdS7UJRthiQP-23" value="" style="endArrow=classic;html=1;entryX=1;entryY=0;entryDx=0;entryDy=0;exitX=0;exitY=0.5;exitDx=0;exitDy=0;" edge="1" parent="1" source="N-l8g5hQNdS7UJRthiQP-9" target="N-l8g5hQNdS7UJRthiQP-20">
          <mxGeometry width="50" height="50" relative="1" as="geometry">
            <mxPoint x="400" y="380" as="sourcePoint" />
            <mxPoint x="450" y="330" as="targetPoint" />
          </mxGeometry>
        </mxCell>
        <mxCell id="N-l8g5hQNdS7UJRthiQP-24" value="" style="endArrow=classic;html=1;exitX=0;exitY=0.75;exitDx=0;exitDy=0;" edge="1" parent="1" source="N-l8g5hQNdS7UJRthiQP-9" target="N-l8g5hQNdS7UJRthiQP-21">
          <mxGeometry width="50" height="50" relative="1" as="geometry">
            <mxPoint x="400" y="380" as="sourcePoint" />
            <mxPoint x="450" y="330" as="targetPoint" />
          </mxGeometry>
        </mxCell>
        <mxCell id="N-l8g5hQNdS7UJRthiQP-25" value="" style="endArrow=classic;html=1;entryX=0.575;entryY=0;entryDx=0;entryDy=0;exitX=0;exitY=1;exitDx=0;exitDy=0;entryPerimeter=0;" edge="1" parent="1" source="N-l8g5hQNdS7UJRthiQP-9" target="N-l8g5hQNdS7UJRthiQP-22">
          <mxGeometry width="50" height="50" relative="1" as="geometry">
            <mxPoint x="430" y="400" as="sourcePoint" />
            <mxPoint x="450" y="330" as="targetPoint" />
          </mxGeometry>
        </mxCell>
        <mxCell id="N-l8g5hQNdS7UJRthiQP-26" value="الموافقه" style="rounded=0;whiteSpace=wrap;html=1;" vertex="1" parent="1">
          <mxGeometry x="630" y="390" width="120" height="60" as="geometry" />
        </mxCell>
        <mxCell id="N-l8g5hQNdS7UJRthiQP-27" value="" style="endArrow=classic;html=1;entryX=0;entryY=0.5;entryDx=0;entryDy=0;exitX=1;exitY=0.5;exitDx=0;exitDy=0;" edge="1" parent="1" source="N-l8g5hQNdS7UJRthiQP-9" target="N-l8g5hQNdS7UJRthiQP-26">
          <mxGeometry width="50" height="50" relative="1" as="geometry">
            <mxPoint x="520" y="420" as="sourcePoint" />
            <mxPoint x="570" y="370" as="targetPoint" />
          </mxGeometry>
        </mxCell>
        <mxCell id="N-l8g5hQNdS7UJRthiQP-28" value="عرض الداش بورد لجميع الفرص" style="rounded=0;whiteSpace=wrap;html=1;" vertex="1" parent="1">
          <mxGeometry x="610" y="600" width="200" height="130" as="geometry" />
        </mxCell>
        <mxCell id="N-l8g5hQNdS7UJRthiQP-29" value="" style="endArrow=classic;html=1;exitX=0.442;exitY=1;exitDx=0;exitDy=0;exitPerimeter=0;entryX=0.37;entryY=-0.015;entryDx=0;entryDy=0;entryPerimeter=0;" edge="1" parent="1" source="N-l8g5hQNdS7UJRthiQP-26" target="N-l8g5hQNdS7UJRthiQP-28">
          <mxGeometry width="50" height="50" relative="1" as="geometry">
            <mxPoint x="670" y="480" as="sourcePoint" />
            <mxPoint x="687" y="480" as="targetPoint" />
          </mxGeometry>
        </mxCell>
        <mxCell id="N-l8g5hQNdS7UJRthiQP-30" value="الرفض" style="rounded=0;whiteSpace=wrap;html=1;" vertex="1" parent="1">
          <mxGeometry x="440" y="430" width="120" height="60" as="geometry" />
        </mxCell>
        <mxCell id="N-l8g5hQNdS7UJRthiQP-31" value="" style="endArrow=classic;html=1;entryX=0.083;entryY=0;entryDx=0;entryDy=0;entryPerimeter=0;" edge="1" parent="1" source="N-l8g5hQNdS7UJRthiQP-9" target="N-l8g5hQNdS7UJRthiQP-30">
          <mxGeometry width="50" height="50" relative="1" as="geometry">
            <mxPoint x="400" y="530" as="sourcePoint" />
            <mxPoint x="450" y="480" as="targetPoint" />
          </mxGeometry>
        </mxCell>
        <mxCell id="N-l8g5hQNdS7UJRthiQP-32" value="استيفاء الشروط " style="rounded=0;whiteSpace=wrap;html=1;" vertex="1" parent="1">
          <mxGeometry x="440" y="530" width="120" height="60" as="geometry" />
        </mxCell>
        <mxCell id="N-l8g5hQNdS7UJRthiQP-33" value="" style="endArrow=classic;html=1;entryX=0.35;entryY=0;entryDx=0;entryDy=0;entryPerimeter=0;exitX=0.333;exitY=1.017;exitDx=0;exitDy=0;exitPerimeter=0;" edge="1" parent="1" source="N-l8g5hQNdS7UJRthiQP-30" target="N-l8g5hQNdS7UJRthiQP-32">
          <mxGeometry width="50" height="50" relative="1" as="geometry">
            <mxPoint x="400" y="530" as="sourcePoint" />
            <mxPoint x="450" y="480" as="targetPoint" />
          </mxGeometry>
        </mxCell>
        <mxCell id="N-l8g5hQNdS7UJRthiQP-34" value="إصدار ايبان افتراضي من قبل بنك الرياض" style="rounded=0;whiteSpace=wrap;html=1;" vertex="1" parent="1">
          <mxGeometry x="790" y="480" width="120" height="60" as="geometry" />
        </mxCell>
        <mxCell id="N-l8g5hQNdS7UJRthiQP-35" value="" style="endArrow=classic;startArrow=classic;html=1;exitX=1;exitY=0.75;exitDx=0;exitDy=0;entryX=0.117;entryY=-0.05;entryDx=0;entryDy=0;entryPerimeter=0;" edge="1" parent="1" source="N-l8g5hQNdS7UJRthiQP-26" target="N-l8g5hQNdS7UJRthiQP-34">
          <mxGeometry width="50" height="50" relative="1" as="geometry">
            <mxPoint x="760" y="450" as="sourcePoint" />
            <mxPoint x="810" y="470" as="targetPoint" />
          </mxGeometry>
        </mxCell>
        <mxCell id="N-l8g5hQNdS7UJRthiQP-36" value="" style="endArrow=classic;html=1;exitX=0.117;exitY=1.017;exitDx=0;exitDy=0;exitPerimeter=0;entryX=0.59;entryY=-0.008;entryDx=0;entryDy=0;entryPerimeter=0;" edge="1" parent="1" source="N-l8g5hQNdS7UJRthiQP-34" target="N-l8g5hQNdS7UJRthiQP-28">
          <mxGeometry width="50" height="50" relative="1" as="geometry">
            <mxPoint x="400" y="630" as="sourcePoint" />
            <mxPoint x="450" y="580" as="targetPoint" />
          </mxGeometry>
        </mxCell>
        <mxCell id="N-l8g5hQNdS7UJRthiQP-37" value="&lt;div&gt;الشاشات &lt;br&gt;&lt;/div&gt;&lt;div&gt;شاشه للادمن &lt;br&gt;&lt;/div&gt;&lt;div&gt;شاشه لتسجيل الشركات&lt;/div&gt;&lt;div&gt;شاشه لتسجيل المستثمر&lt;/div&gt;&lt;div&gt;شاشه المنصه&lt;br&gt;&lt;/div&gt;" style="whiteSpace=wrap;html=1;aspect=fixed;" vertex="1" parent="1">
          <mxGeometry x="-230" y="10" width="230" height="230" as="geometry" />
        </mxCell>
      </root>
    </mxGraphModel>
  </diagram>
</mxfile>
